<mxfile host="app.diagrams.net" modified="2020-12-25T02:51:14.367Z" agent="5.0 (Windows NT 10.0; Win64; x64) AppleWebKit/537.36 (KHTML, like Gecko) Chrome/87.0.4280.88 Safari/537.36" etag="B7kADn2iyg2l93a29EPD" version="14.0.5" type="github">
  <diagram id="cTgDgX14xikcMWw0g8CN" name="第 1 页">
    <mxGraphModel dx="1422" dy="794" grid="1" gridSize="10" guides="1" tooltips="1" connect="1" arrows="1" fold="1" page="1" pageScale="1" pageWidth="827" pageHeight="1169" math="0" shadow="0">
      <root>
        <mxCell id="0" />
        <mxCell id="1" parent="0" />
        <mxCell id="xF1rdSyoxAT8YF1817bv-9" value="" style="rounded=0;whiteSpace=wrap;html=1;fontSize=12;" parent="1" vertex="1">
          <mxGeometry x="280" y="120" width="200" height="440" as="geometry" />
        </mxCell>
        <mxCell id="xF1rdSyoxAT8YF1817bv-3" value="发布主题&lt;br style=&quot;font-size: 12px;&quot;&gt;实时数据写入" style="edgeStyle=orthogonalEdgeStyle;rounded=0;orthogonalLoop=1;jettySize=auto;html=1;fontSize=12;" parent="1" source="xF1rdSyoxAT8YF1817bv-1" target="xF1rdSyoxAT8YF1817bv-2" edge="1">
          <mxGeometry relative="1" as="geometry" />
        </mxCell>
        <mxCell id="gtHablLlZKjU7F9uTe0W-1" style="edgeStyle=orthogonalEdgeStyle;rounded=0;orthogonalLoop=1;jettySize=auto;html=1;exitX=0.5;exitY=1;exitDx=0;exitDy=0;entryX=0;entryY=0.25;entryDx=0;entryDy=0;fillColor=#ffe6cc;strokeColor=#d79b00;" edge="1" parent="1" source="xF1rdSyoxAT8YF1817bv-1" target="xF1rdSyoxAT8YF1817bv-10">
          <mxGeometry relative="1" as="geometry">
            <Array as="points">
              <mxPoint x="140" y="430" />
              <mxPoint x="240" y="430" />
              <mxPoint x="240" y="485" />
            </Array>
          </mxGeometry>
        </mxCell>
        <mxCell id="gtHablLlZKjU7F9uTe0W-2" value="定时同步" style="edgeLabel;html=1;align=center;verticalAlign=middle;resizable=0;points=[];" vertex="1" connectable="0" parent="gtHablLlZKjU7F9uTe0W-1">
          <mxGeometry x="-0.4459" y="-3" relative="1" as="geometry">
            <mxPoint as="offset" />
          </mxGeometry>
        </mxCell>
        <mxCell id="xF1rdSyoxAT8YF1817bv-1" value="A" style="rounded=1;whiteSpace=wrap;html=1;fontSize=12;" parent="1" vertex="1">
          <mxGeometry x="80" y="160" width="120" height="60" as="geometry" />
        </mxCell>
        <mxCell id="xF1rdSyoxAT8YF1817bv-5" value="订阅主题&lt;br style=&quot;font-size: 12px;&quot;&gt;实时获取数据" style="edgeStyle=orthogonalEdgeStyle;rounded=0;orthogonalLoop=1;jettySize=auto;html=1;fontSize=12;" parent="1" source="xF1rdSyoxAT8YF1817bv-2" target="xF1rdSyoxAT8YF1817bv-4" edge="1">
          <mxGeometry relative="1" as="geometry" />
        </mxCell>
        <mxCell id="xF1rdSyoxAT8YF1817bv-7" value="" style="edgeStyle=orthogonalEdgeStyle;rounded=0;orthogonalLoop=1;jettySize=auto;html=1;fontSize=12;" parent="1" source="xF1rdSyoxAT8YF1817bv-2" edge="1">
          <mxGeometry relative="1" as="geometry">
            <mxPoint x="380" y="300" as="targetPoint" />
          </mxGeometry>
        </mxCell>
        <mxCell id="xF1rdSyoxAT8YF1817bv-2" value="数据同步服务" style="whiteSpace=wrap;html=1;rounded=1;fontSize=12;" parent="1" vertex="1">
          <mxGeometry x="320" y="160" width="120" height="60" as="geometry" />
        </mxCell>
        <mxCell id="xF1rdSyoxAT8YF1817bv-4" value="B" style="whiteSpace=wrap;html=1;rounded=1;fontSize=12;" parent="1" vertex="1">
          <mxGeometry x="600" y="160" width="120" height="60" as="geometry" />
        </mxCell>
        <mxCell id="xF1rdSyoxAT8YF1817bv-8" value="&lt;br&gt;存储" style="shape=cylinder3;whiteSpace=wrap;html=1;boundedLbl=1;backgroundOutline=1;size=15;fontSize=12;" parent="1" vertex="1">
          <mxGeometry x="344" y="300" width="70" height="80" as="geometry" />
        </mxCell>
        <mxCell id="xF1rdSyoxAT8YF1817bv-13" value="" style="edgeStyle=orthogonalEdgeStyle;rounded=0;orthogonalLoop=1;jettySize=auto;html=1;exitX=0.5;exitY=0;exitDx=0;exitDy=0;entryX=0.5;entryY=1;entryDx=0;entryDy=0;entryPerimeter=0;fontSize=12;fillColor=#0050ef;strokeColor=#001DBC;" parent="1" source="xF1rdSyoxAT8YF1817bv-10" target="xF1rdSyoxAT8YF1817bv-8" edge="1">
          <mxGeometry relative="1" as="geometry" />
        </mxCell>
        <mxCell id="xF1rdSyoxAT8YF1817bv-14" value="发布实时数据" style="edgeStyle=orthogonalEdgeStyle;rounded=0;orthogonalLoop=1;jettySize=auto;html=1;exitX=0.25;exitY=0;exitDx=0;exitDy=0;entryX=0.25;entryY=1;entryDx=0;entryDy=0;fontSize=12;jumpStyle=none;fillColor=#0050ef;strokeColor=#001DBC;" parent="1" source="xF1rdSyoxAT8YF1817bv-10" target="xF1rdSyoxAT8YF1817bv-2" edge="1">
          <mxGeometry relative="1" as="geometry">
            <Array as="points">
              <mxPoint x="350" y="470" />
              <mxPoint x="350" y="410" />
              <mxPoint x="310" y="410" />
              <mxPoint x="310" y="270" />
              <mxPoint x="350" y="270" />
            </Array>
          </mxGeometry>
        </mxCell>
        <mxCell id="xF1rdSyoxAT8YF1817bv-10" value="数据拉取服务" style="rounded=1;whiteSpace=wrap;html=1;fontSize=12;" parent="1" vertex="1">
          <mxGeometry x="319" y="470" width="120" height="60" as="geometry" />
        </mxCell>
        <mxCell id="xF1rdSyoxAT8YF1817bv-12" value="binlog同步" style="edgeStyle=orthogonalEdgeStyle;rounded=0;orthogonalLoop=1;jettySize=auto;html=1;entryX=0;entryY=0.5;entryDx=0;entryDy=0;fontSize=12;exitX=1;exitY=0.5;exitDx=0;exitDy=0;fillColor=#0050ef;strokeColor=#001DBC;" parent="1" source="xF1rdSyoxAT8YF1817bv-15" target="xF1rdSyoxAT8YF1817bv-10" edge="1">
          <mxGeometry relative="1" as="geometry">
            <mxPoint x="200" y="500" as="sourcePoint" />
          </mxGeometry>
        </mxCell>
        <mxCell id="xF1rdSyoxAT8YF1817bv-15" value="DB" style="shape=cylinder;whiteSpace=wrap;html=1;boundedLbl=1;backgroundOutline=1;rounded=1;" parent="1" vertex="1">
          <mxGeometry x="110" y="460" width="60" height="80" as="geometry" />
        </mxCell>
      </root>
    </mxGraphModel>
  </diagram>
</mxfile>
